<svg id="Capa_1" enable-background="new 0 0 512 512" height="512" viewBox="0 0 512 512" width="512" xmlns="http://www.w3.org/2000/svg"><g><path d="m446.667 377h-7.508l.017-362h7.492c4.143 0 7.5-3.358 7.5-7.5s-3.357-7.5-7.5-7.5h-30c-4.143 0-7.5 3.358-7.5 7.5s3.357 7.5 7.5 7.5h7.508l-.017 362h-7.492c-4.143 0-7.5 3.358-7.5 7.5s3.357 7.5 7.5 7.5h30c4.143 0 7.5-3.358 7.5-7.5s-3.358-7.5-7.5-7.5z" fill="#c4f3ff"/><path d="m271 75c4.143 0 7.5-3.358 7.5-7.5s-3.358-7.5-7.5-7.5h-30c-4.142 0-7.5 3.358-7.5 7.5s3.358 7.5 7.5 7.5h7.508l-.017 362h-7.491c-4.142 0-7.5 3.358-7.5 7.5s3.358 7.5 7.5 7.5h30c4.143 0 7.5-3.358 7.5-7.5s-3.357-7.5-7.5-7.5h-7.508l.017-362z" fill="#c4f3ff"/><path d="m95.333 135c4.142 0 7.5-3.358 7.5-7.5s-3.358-7.5-7.5-7.5h-30c-4.142 0-7.5 3.358-7.5 7.5s3.358 7.5 7.5 7.5h7.508l-.017 362h-7.492c-4.142 0-7.5 3.358-7.5 7.5s3.358 7.5 7.5 7.5h30c4.142 0 7.5-3.358 7.5-7.5s-3.358-7.5-7.5-7.5h-7.508l.017-362z" fill="#c4f3ff"/><path d="m123.167 380.25-42.833-72.479 72.833 31.063v33.917c0 4.142-3.358 7.5-7.5 7.5h-22.5z" fill="#ff8b47"/><path d="m7.5 372.75v-33.917l115.666-30v71.417h-108.166c-4.142 0-7.5-3.358-7.5-7.5z" fill="#f9b348"/><path d="m123.167 338.833-42.833-41.417 42.833-41.416h22.5c4.142 0 7.5 3.358 7.5 7.5v75.333z" fill="#f9b348"/><path d="m7.5 338.833v-75.333c0-4.142 3.358-7.5 7.5-7.5h108.166v82.833z" fill="#f3da49"/><path d="m474.5 131.75-42.833 72.479 72.833-31.063v-33.916c0-4.142-3.358-7.5-7.5-7.5z" fill="#9255e3"/><path d="m358.833 139.25v33.917l115.666 30v-71.417h-108.166c-4.142 0-7.5 3.358-7.5 7.5z" fill="#ae7df0"/><path d="m474.5 173.167-42.833 41.417 42.833 41.416h22.5c4.142 0 7.5-3.358 7.5-7.5v-75.333z" fill="#793bcc"/><path d="m358.833 173.167v75.333c0 4.142 3.358 7.5 7.5 7.5h108.167v-82.833z" fill="#9255e3"/><path d="m298.833 131.75-42.833 155.313 72.833-31.063v-116.75c0-4.142-3.358-7.5-7.5-7.5z" fill="#28abfa"/><path d="m183.167 139.25v116.75l115.666 30v-154.25h-108.166c-4.142 0-7.5 3.358-7.5 7.5z" fill="#14cfff"/><path d="m298.833 256-42.833 62.125 42.833 62.125h22.5c4.142 0 7.5-3.358 7.5-7.5v-116.75z" fill="#3b88f5"/><path d="m183.167 256v116.75c0 4.142 3.358 7.5 7.5 7.5h108.166v-124.25z" fill="#28abfa"/><g fill="#f9eda4"><circle cx="80.342" cy="22.5" r="15"/><circle cx="80.342" cy="82.5" r="15"/><circle cx="256.009" cy="22.5" r="15"/><circle cx="255.991" cy="489.5" r="15"/><circle cx="431.658" cy="489.5" r="15"/><circle cx="431.658" cy="429.5" r="15"/></g></g></svg>