<?xml version="1.0" encoding="iso-8859-1"?>
<!-- Generator: Adobe Illustrator 19.0.0, SVG Export Plug-In . SVG Version: 6.00 Build 0)  -->
<svg version="1.1" id="Layer_1" xmlns="http://www.w3.org/2000/svg" xmlns:xlink="http://www.w3.org/1999/xlink" x="0px" y="0px"
	 viewBox="0 0 512 512" style="enable-background:new 0 0 512 512;" xml:space="preserve">
<path style="fill:#FFC865;" d="M512,289.391v189.217C512,497.051,497.051,512,478.609,512H256H33.391
	C14.949,512,0,497.051,0,478.609V256v-88.348l33.478,2.093c24.08,1.505,44.435-17.618,44.435-41.745l0,0
	c0-24.126-20.355-43.25-44.435-41.745L0,88.348V33.391C0,14.949,14.949,0,33.391,0h189.217C241.051,0,256,14.949,256,33.391V256
	h88.348l-2.093-33.478c-1.505-24.08,17.618-44.435,41.745-44.435l0,0c24.126,0,43.25,20.355,41.745,44.435L423.652,256h54.957
	C497.051,256,512,270.949,512,289.391z"/>
<path style="fill:#80BDA2;" d="M512,289.391v189.217C512,497.05,497.051,512,478.609,512H256H33.391C14.949,512,0,497.05,0,478.609
	V256h88.348l-2.093,33.478c-1.505,24.078,17.618,44.435,41.745,44.435l0,0c24.126,0,43.25-20.356,41.745-44.435L167.652,256H256
	h88.348l-2.093-33.478c-1.505-24.078,17.618-44.435,41.745-44.435l0,0c24.126,0,43.25,20.356,41.745,44.435L423.652,256h54.957
	C497.051,256,512,270.95,512,289.391z"/>
<path style="fill:#DB5E49;" d="M256,423.652V512H33.391C14.949,512,0,497.05,0,478.609V256h88.348l-2.093,33.478
	c-1.505,24.078,17.618,44.435,41.745,44.435s43.25-20.356,41.745-44.435L167.652,256H256v88.348l33.478-2.093
	c24.078-1.505,44.435,17.618,44.435,41.745l0,0c0,24.126-20.356,43.25-44.435,41.745L256,423.652z"/>
<path style="fill:#FFFFFF;" d="M222.609,175.861v2.226c0,6.147-4.983,11.13-11.13,11.13c-6.147,0-11.13-4.983-11.13-11.13v-2.226
	c0-6.147,4.983-11.13,11.13-11.13C217.626,164.73,222.609,169.714,222.609,175.861z M189.217,33.391h-33.391
	c-6.147,0-11.13,4.983-11.13,11.13s4.983,11.13,11.13,11.13h33.391c6.137,0,11.13,4.993,11.13,11.13v55.652
	c0,6.147,4.983,11.13,11.13,11.13c6.147,0,11.13-4.983,11.13-11.13V66.783C222.609,48.371,207.629,33.391,189.217,33.391z
	 M467.478,322.783c-6.147,0-11.13,4.983-11.13,11.13v2.226c0,6.147,4.983,11.13,11.13,11.13s11.13-4.983,11.13-11.13v-2.226
	C478.609,327.766,473.626,322.783,467.478,322.783z M467.478,378.435c-6.147,0-11.13,4.983-11.13,11.13v55.652
	c0,6.137-4.993,11.13-11.13,11.13h-33.391c-6.147,0-11.13,4.983-11.13,11.13s4.983,11.13,11.13,11.13h33.391
	c18.412,0,33.391-14.979,33.391-33.391v-55.652C478.609,383.418,473.626,378.435,467.478,378.435z M133.565,456.348H66.783
	c-6.137,0-11.13-4.993-11.13-11.13v-44.522c0-6.147-4.983-11.13-11.13-11.13s-11.13,4.983-11.13,11.13v44.522
	c0,18.412,14.979,33.391,33.391,33.391h66.783c6.147,0,11.13-4.983,11.13-11.13S139.713,456.348,133.565,456.348z M189.217,456.348
	h-2.226c-6.147,0-11.13,4.983-11.13,11.13s4.983,11.13,11.13,11.13h2.226c6.147,0,11.13-4.983,11.13-11.13
	S195.365,456.348,189.217,456.348z"/>
<g>
</g>
<g>
</g>
<g>
</g>
<g>
</g>
<g>
</g>
<g>
</g>
<g>
</g>
<g>
</g>
<g>
</g>
<g>
</g>
<g>
</g>
<g>
</g>
<g>
</g>
<g>
</g>
<g>
</g>
</svg>
