<svg height="464pt" viewBox="0 0 464 464" width="464pt" xmlns="http://www.w3.org/2000/svg"><path d="m424 264c0 106.039062-85.960938 192-192 192s-192-85.960938-192-192 85.960938-192 192-192 192 85.960938 192 192zm0 0" fill="#d7e6eb"/><path d="m272 408 96 56 96-56v-120l-96-56-96 56zm0 0" fill="#ffc119"/><path d="m464 408-96 56v-120l96-56zm0 0" fill="#ea732d"/><path d="m272 408 96 56v-120l-96-56zm0 0" fill="#faac2b"/><path d="m0 408 96 56 96-56v-120l-96-56-96 56zm0 0" fill="#ffc119"/><path d="m192 408-96 56v-120l96-56zm0 0" fill="#ea732d"/><path d="m0 408 96 56v-120l-96-56zm0 0" fill="#faac2b"/><path d="m136 176 96 56 96-56v-120l-96-56-96 56zm0 0" fill="#ffc119"/><path d="m32 389.617188v-45.90625l32 18.671874v45.90625zm0 0" fill="#047fa7"/><path d="m432 389.617188v-45.90625l-32 18.671874v45.90625zm0 0" fill="#06687f"/><path d="m328 176-96 56v-120l96-56zm0 0" fill="#ea732d"/><path d="m136 176 96 56v-120l-96-56zm0 0" fill="#faac2b"/><g fill="#0093ba"><path d="m199.503906 56 32.496094-18.953125 32.496094 18.953125-32.496094 18.953125zm0 0"/><path d="m273.179688 148.171875 13.652343-8.34375 7.820313 12.792969-13.652344 8.34375zm0 0"/><path d="m288.339844 173.007812 13.652344-8.34375 58.113281 95.09375-13.652344 8.34375zm0 0"/><path d="m352.941406 279.117188 13.648438-8.335938 7.992187 13.089844-13.644531 8.335937zm0 0"/><path d="m169.363281 152.613281 7.820313-12.789062 13.652344 8.34375-7.820313 12.792969zm0 0"/><path d="m103.890625 259.753906 58.105469-95.105468 13.652344 8.34375-58.105469 95.101562zm0 0"/><path d="m89.167969 283.820312 8-13.09375 13.652343 8.34375-8 13.09375zm0 0"/><path d="m320 368h16v16h-16zm0 0"/><path d="m160 368h144v16h-144zm0 0"/><path d="m128 368h16v16h-16zm0 0"/></g></svg>